<svg id="Layer_1" data-name="Layer 1" xmlns="http://www.w3.org/2000/svg" width="21" height="21" viewBox="0 0 21 21">
  <defs>
    <style>
      .cls-1 {
        fill: none;
      }

      .cls-2 {
        fill: #fff;
        fill-rule: evenodd;
      }
    </style>
  </defs>
  <title>instagram</title>
  <g>
    <rect class="cls-1" width="21" height="21"/>
    <path class="cls-2" d="M5.14,3.29H15.86a1.85,1.85,0,0,1,1.85,1.85V15.86a1.85,1.85,0,0,1-1.85,1.85H5.14a1.85,1.85,0,0,1-1.85-1.85V5.14A1.85,1.85,0,0,1,5.14,3.29Zm8.65,1.6a.66.66,0,0,0-.65.65V7.1a.65.65,0,0,0,.65.64h1.63a.65.65,0,0,0,.65-.64V5.54a.66.66,0,0,0-.65-.65Zm2.29,4.5H14.81A4.23,4.23,0,0,1,15,10.63,4.42,4.42,0,0,1,10.51,15,4.42,4.42,0,0,1,6,10.63a4.23,4.23,0,0,1,.19-1.24H4.89v6.09a.58.58,0,0,0,.58.57h10a.58.58,0,0,0,.57-.57V9.39ZM10.51,7.66a2.81,2.81,0,1,0,2.9,2.81A2.85,2.85,0,0,0,10.51,7.66Z"/>
  </g>
</svg>
