<?xml version="1.0" encoding="utf-8"?>
<!-- Generator: Adobe Illustrator 22.1.0, SVG Export Plug-In . SVG Version: 6.00 Build 0)  -->
<svg version="1.1" id="Layer_1" xmlns="http://www.w3.org/2000/svg" xmlns:xlink="http://www.w3.org/1999/xlink" x="0px" y="0px"
	 viewBox="0 0 220.9 43.7" style="enable-background:new 0 0 220.9 43.7;" xml:space="preserve">
<style type="text/css">
	.st0{fill:#2E3B62;}
	.st1{font-family:'ArialRoundedMTBold';}
	.st2{font-size:22px;}
	.st3{font-size:20px;}
</style>
<title>mia_logo</title>
<polygon class="st0" points="104.5,33.7 84.1,33.7 88.5,26.8 100.4,26.8 "/>
<path class="st0" d="M46.5,40.2v-23L29.6,38.4c-0.7,0.8-1.7,1.3-2.7,1.3c-1.1,0-2-0.5-2.7-1.3L7,17.1v23.1H0v-33
	c0-1.9,1.6-3.5,3.5-3.5c1.1,0,2.1,0.5,2.7,1.3l20.6,25.6L47.3,5c1.2-1.5,3.4-1.7,4.9-0.5c0.8,0.7,1.3,1.7,1.3,2.7v33L46.5,40.2z"/>
<rect x="57.5" y="3.6" class="st0" width="7" height="36.5"/>
<text transform="matrix(1 0 0 1 108.37 19.01)" class="st0 st1 st2">Insu</text>
<text transform="matrix(1 0 0 1 153.76 19.01)" class="st0 st1 st2">r</text>
<text transform="matrix(1 0 0 1 162.84 19.01)" class="st0 st1 st2">ance </text>
<text transform="matrix(1 0 0 1 108.37 39.01)" class="st0 st1 st3">  </text>
<text transform="matrix(1 0 0 1 118.37 39.01)" class="st0 st1 st2">G</text>
<text transform="matrix(1 0 0 1 135.79 39.01)" class="st0 st1 st2">r</text>
<text transform="matrix(1 0 0 1 144.59 39.01)" class="st0 st1 st2">oup</text>
<path class="st0" d="M94.7,5.3c-0.6-1-1.7-1.6-2.9-1.6l0,0c-1.2,0-2.3,0.6-2.9,1.6l-22.5,35h8.2l3.8-5.9l4.3-6.7l9.1-14l8.9,14
	l4.4,6.9l3.6,5.6h8.4L94.7,5.3z"/>
</svg>
