<?xml version="1.0" encoding="utf-8"?>
<!-- Generator: Adobe Illustrator 22.1.0, SVG Export Plug-In . SVG Version: 6.00 Build 0)  -->
<svg version="1.1" id="Layer_1" xmlns="http://www.w3.org/2000/svg" xmlns:xlink="http://www.w3.org/1999/xlink" x="0px" y="0px"
	 viewBox="0 0 220.9 43.7" style="enable-background:new 0 0 220.9 43.7;" preserveAspectRatio="xMinYMid" xml:space="preserve">
<style type="text/css">
	.st0{fill:#2E3B62;}
	.st1{enable-background:new    ;}
</style>
<title>mia_logo</title>
<polygon class="st0" points="104.5,33.7 84.1,33.7 88.5,26.8 100.4,26.8 "/>
<path class="st0" d="M46.5,40.2v-23L29.6,38.4c-0.7,0.8-1.7,1.3-2.7,1.3c-1.1,0-2-0.5-2.7-1.3L7,17.1v23.1H0v-33
	c0-1.9,1.6-3.5,3.5-3.5c1.1,0,2.1,0.5,2.7,1.3l20.6,25.6L47.3,5c1.2-1.5,3.4-1.7,4.9-0.5c0.8,0.7,1.3,1.7,1.3,2.7v33H46.5z"/>
<rect x="57.5" y="3.6" class="st0" width="7" height="36.5"/>
<g class="st1">
	<path class="st0" d="M110.2,17.3V4.9c0-0.6,0.1-1.1,0.4-1.5c0.3-0.3,0.7-0.5,1.1-0.5c0.5,0,0.9,0.2,1.2,0.5
		c0.3,0.3,0.4,0.8,0.4,1.5v12.4c0,0.7-0.1,1.1-0.4,1.5s-0.7,0.5-1.2,0.5c-0.5,0-0.8-0.2-1.1-0.5C110.4,18.5,110.2,18,110.2,17.3z"/>
	<path class="st0" d="M119.4,9v0.4c0.5-0.7,1.1-1.2,1.7-1.5c0.6-0.3,1.3-0.5,2.1-0.5c0.8,0,1.5,0.2,2.1,0.5c0.6,0.3,1.1,0.8,1.4,1.4
		c0.2,0.4,0.3,0.7,0.4,1.2c0.1,0.4,0.1,0.9,0.1,1.6v5.5c0,0.6-0.1,1-0.4,1.3s-0.6,0.5-1,0.5c-0.4,0-0.8-0.2-1.1-0.5
		c-0.3-0.3-0.4-0.7-0.4-1.3v-4.9c0-1-0.1-1.7-0.4-2.2c-0.3-0.5-0.8-0.8-1.6-0.8c-0.5,0-1,0.2-1.4,0.5c-0.4,0.3-0.7,0.7-0.9,1.3
		c-0.1,0.4-0.2,1.3-0.2,2.4v3.7c0,0.6-0.1,1-0.4,1.3c-0.3,0.3-0.6,0.4-1.1,0.4c-0.4,0-0.8-0.2-1-0.5c-0.3-0.3-0.4-0.7-0.4-1.3V9
		c0-0.6,0.1-1,0.4-1.3c0.2-0.3,0.6-0.4,1-0.4c0.3,0,0.5,0.1,0.7,0.2c0.2,0.1,0.4,0.3,0.5,0.5S119.4,8.6,119.4,9z"/>
	<path class="st0" d="M139.5,15.4c0,0.8-0.2,1.5-0.6,2.1c-0.4,0.6-1,1-1.7,1.3c-0.8,0.3-1.7,0.4-2.8,0.4c-1.1,0-2-0.2-2.7-0.5
		s-1.3-0.7-1.7-1.2c-0.4-0.5-0.5-1-0.5-1.5c0-0.3,0.1-0.6,0.3-0.8c0.2-0.2,0.5-0.3,0.9-0.3c0.3,0,0.5,0.1,0.7,0.2
		c0.2,0.2,0.3,0.4,0.5,0.6c0.3,0.5,0.7,0.9,1.1,1.2s1,0.4,1.7,0.4c0.6,0,1.1-0.1,1.4-0.4c0.4-0.3,0.6-0.6,0.6-0.9
		c0-0.5-0.2-0.9-0.6-1.1s-1-0.5-1.9-0.7c-1-0.3-1.8-0.5-2.5-0.8c-0.6-0.3-1.1-0.6-1.5-1.1c-0.4-0.5-0.6-1-0.6-1.7
		c0-0.6,0.2-1.1,0.5-1.7c0.4-0.5,0.9-0.9,1.6-1.3c0.7-0.3,1.5-0.5,2.5-0.5c0.8,0,1.4,0.1,2,0.2s1.1,0.4,1.5,0.6s0.7,0.6,0.9,0.9
		s0.3,0.6,0.3,0.9c0,0.3-0.1,0.6-0.3,0.8s-0.5,0.3-1,0.3c-0.3,0-0.6-0.1-0.8-0.3s-0.5-0.4-0.7-0.8c-0.2-0.3-0.5-0.5-0.8-0.7
		s-0.7-0.3-1.2-0.3c-0.5,0-1,0.1-1.3,0.3c-0.4,0.2-0.5,0.5-0.5,0.8c0,0.3,0.1,0.6,0.4,0.8c0.3,0.2,0.6,0.4,1,0.5
		c0.4,0.1,1,0.3,1.8,0.5c0.9,0.2,1.7,0.5,2.2,0.8s1,0.7,1.3,1.1C139.4,14.4,139.5,14.9,139.5,15.4z"/>
	<path class="st0" d="M149.6,17.6v-0.4c-0.4,0.4-0.7,0.8-1.1,1.1s-0.8,0.5-1.3,0.7c-0.5,0.1-1,0.2-1.6,0.2c-0.7,0-1.3-0.1-1.9-0.4
		s-1-0.7-1.3-1.2c-0.4-0.6-0.5-1.5-0.5-2.7V9.1c0-0.6,0.1-1,0.4-1.3c0.3-0.3,0.6-0.4,1.1-0.4c0.4,0,0.8,0.1,1.1,0.4
		c0.3,0.3,0.4,0.7,0.4,1.3v4.7c0,0.7,0.1,1.3,0.2,1.7c0.1,0.5,0.3,0.8,0.6,1.1c0.3,0.3,0.7,0.4,1.2,0.4c0.5,0,1-0.1,1.4-0.4
		c0.4-0.3,0.8-0.7,1-1.1c0.2-0.4,0.2-1.3,0.2-2.7V9.1c0-0.6,0.1-1,0.4-1.3c0.3-0.3,0.6-0.4,1.1-0.4c0.4,0,0.8,0.1,1.1,0.4
		c0.3,0.3,0.4,0.7,0.4,1.3v8.5c0,0.6-0.1,1-0.4,1.3s-0.6,0.4-1,0.4c-0.4,0-0.7-0.1-1-0.4C149.7,18.6,149.6,18.1,149.6,17.6z"/>
</g>
<g class="st1">
	<path class="st0" d="M158.2,15v2.4c0,0.6-0.1,1-0.4,1.3c-0.3,0.3-0.6,0.4-1.1,0.4c-0.4,0-0.8-0.2-1-0.5s-0.4-0.7-0.4-1.3V9.3
		c0-1.3,0.5-2,1.4-2c0.5,0,0.8,0.2,1.1,0.5s0.3,0.8,0.4,1.4c0.4-0.6,0.7-1.1,1.1-1.4c0.4-0.3,0.9-0.5,1.5-0.5s1.2,0.2,1.8,0.5
		s0.9,0.7,0.9,1.2c0,0.4-0.1,0.7-0.4,0.9c-0.2,0.2-0.5,0.3-0.8,0.3c-0.1,0-0.4-0.1-0.8-0.2c-0.4-0.1-0.8-0.2-1.1-0.2
		c-0.4,0-0.8,0.1-1.1,0.3c-0.3,0.2-0.5,0.6-0.6,1s-0.3,1-0.3,1.6C158.2,13.4,158.2,14.2,158.2,15z"/>
</g>
<g class="st1">
	<path class="st0" d="M171.8,17.6c-0.7,0.6-1.4,1-2.1,1.2c-0.7,0.3-1.4,0.4-2.2,0.4c-0.8,0-1.4-0.1-2-0.4c-0.6-0.3-1-0.7-1.3-1.2
		s-0.5-1.1-0.5-1.7c0-0.8,0.3-1.5,0.8-2.1s1.2-0.9,2.1-1.1c0.2,0,0.6-0.1,1.4-0.3s1.4-0.3,1.9-0.4c0.5-0.1,1.1-0.3,1.7-0.5
		c0-0.8-0.2-1.3-0.5-1.7c-0.3-0.4-0.8-0.5-1.7-0.5c-0.7,0-1.3,0.1-1.7,0.3s-0.7,0.5-1,0.9s-0.5,0.7-0.6,0.8
		c-0.1,0.1-0.3,0.2-0.7,0.2c-0.3,0-0.6-0.1-0.9-0.3c-0.2-0.2-0.4-0.5-0.4-0.8c0-0.5,0.2-1,0.5-1.5s0.9-0.9,1.7-1.2s1.7-0.5,2.9-0.5
		c1.3,0,2.3,0.2,3,0.5c0.7,0.3,1.3,0.8,1.6,1.4c0.3,0.7,0.5,1.5,0.5,2.6c0,0.7,0,1.3,0,1.8c0,0.5,0,1,0,1.6c0,0.6,0.1,1.1,0.3,1.7
		c0.2,0.6,0.3,1,0.3,1.2c0,0.3-0.1,0.6-0.4,0.8c-0.3,0.2-0.6,0.4-1,0.4c-0.3,0-0.6-0.1-0.9-0.4C172.4,18.6,172.1,18.2,171.8,17.6z
		 M171.6,13.4c-0.4,0.2-1.1,0.3-1.9,0.5c-0.8,0.2-1.4,0.3-1.7,0.4c-0.3,0.1-0.6,0.2-0.9,0.5c-0.3,0.2-0.4,0.6-0.4,1
		c0,0.4,0.2,0.8,0.5,1.1c0.3,0.3,0.8,0.5,1.3,0.5c0.6,0,1.1-0.1,1.6-0.4c0.5-0.3,0.8-0.6,1.1-1c0.3-0.4,0.4-1.2,0.4-2.2V13.4z"/>
	<path class="st0" d="M180.1,9v0.4c0.5-0.7,1.1-1.2,1.7-1.5c0.6-0.3,1.3-0.5,2.1-0.5c0.8,0,1.5,0.2,2.1,0.5s1.1,0.8,1.4,1.4
		c0.2,0.4,0.3,0.7,0.4,1.2s0.1,0.9,0.1,1.6v5.5c0,0.6-0.1,1-0.4,1.3s-0.6,0.5-1,0.5c-0.4,0-0.8-0.2-1.1-0.5s-0.4-0.7-0.4-1.3v-4.9
		c0-1-0.1-1.7-0.4-2.2c-0.3-0.5-0.8-0.8-1.6-0.8c-0.5,0-1,0.2-1.4,0.5c-0.4,0.3-0.7,0.7-0.9,1.3c-0.1,0.4-0.2,1.3-0.2,2.4v3.7
		c0,0.6-0.1,1-0.4,1.3c-0.3,0.3-0.6,0.4-1.1,0.4c-0.4,0-0.8-0.2-1-0.5s-0.4-0.7-0.4-1.3V9c0-0.6,0.1-1,0.4-1.3
		c0.2-0.3,0.6-0.4,1-0.4c0.3,0,0.5,0.1,0.7,0.2s0.4,0.3,0.5,0.5C180,8.3,180.1,8.6,180.1,9z"/>
	<path class="st0" d="M201.2,15.6c0,0.4-0.1,0.8-0.3,1.2c-0.2,0.4-0.6,0.8-1,1.2c-0.4,0.4-1,0.7-1.7,0.9s-1.4,0.3-2.3,0.3
		c-1.8,0-3.2-0.5-4.2-1.6c-1-1.1-1.5-2.5-1.5-4.2c0-1.2,0.2-2.3,0.7-3.2s1.1-1.6,2-2.1c0.9-0.5,1.9-0.8,3.2-0.8
		c0.8,0,1.5,0.1,2.1,0.3s1.2,0.5,1.6,0.9s0.8,0.7,1,1.1c0.2,0.4,0.3,0.8,0.3,1.1c0,0.4-0.1,0.6-0.4,0.9c-0.3,0.2-0.6,0.4-1,0.4
		c-0.2,0-0.4-0.1-0.6-0.2c-0.2-0.1-0.3-0.3-0.5-0.6c-0.4-0.5-0.7-1-1.1-1.2c-0.4-0.3-0.9-0.4-1.5-0.4c-0.9,0-1.6,0.3-2.1,1
		c-0.5,0.7-0.8,1.6-0.8,2.8c0,0.6,0.1,1.1,0.2,1.5c0.1,0.5,0.3,0.9,0.6,1.2c0.3,0.3,0.6,0.6,0.9,0.7c0.4,0.2,0.8,0.3,1.2,0.3
		c0.6,0,1.1-0.1,1.5-0.4s0.8-0.7,1.1-1.2c0.2-0.3,0.4-0.6,0.6-0.8s0.5-0.3,0.8-0.3c0.4,0,0.7,0.1,0.9,0.4S201.2,15.3,201.2,15.6z"/>
	<path class="st0" d="M212,14h-5.7c0,0.7,0.1,1.3,0.4,1.8c0.3,0.5,0.6,0.9,1,1.1c0.4,0.3,0.9,0.4,1.4,0.4c0.4,0,0.7,0,1-0.1
		c0.3-0.1,0.6-0.2,0.8-0.4c0.3-0.2,0.5-0.4,0.8-0.6s0.5-0.5,0.9-0.8c0.2-0.1,0.4-0.2,0.6-0.2c0.3,0,0.5,0.1,0.7,0.2s0.3,0.4,0.3,0.7
		c0,0.3-0.1,0.6-0.3,0.9c-0.2,0.4-0.5,0.7-0.9,1c-0.4,0.3-0.9,0.6-1.6,0.8s-1.4,0.3-2.2,0.3c-1.9,0-3.3-0.5-4.4-1.6
		s-1.6-2.5-1.6-4.4c0-0.9,0.1-1.7,0.4-2.4c0.3-0.7,0.6-1.4,1.1-1.9s1.1-0.9,1.8-1.2c0.7-0.3,1.5-0.4,2.4-0.4c1.1,0,2.1,0.2,2.9,0.7
		c0.8,0.5,1.4,1.1,1.8,1.9s0.6,1.5,0.6,2.3c0,0.7-0.2,1.2-0.6,1.4C213.3,13.9,212.7,14,212,14z M206.2,12.4h5.3
		c-0.1-1-0.3-1.8-0.8-2.2c-0.5-0.5-1.1-0.7-1.9-0.7c-0.7,0-1.3,0.3-1.8,0.8C206.6,10.6,206.3,11.4,206.2,12.4z"/>
</g>
<g class="st1">
	<path class="st0" d="M134.5,32.6v3c0,0.4,0,0.7-0.1,1c-0.1,0.2-0.2,0.5-0.4,0.6s-0.5,0.4-0.8,0.6c-1,0.5-1.9,0.9-2.8,1.1
		s-1.8,0.4-2.9,0.4c-1.2,0-2.3-0.2-3.3-0.6c-1-0.4-1.8-0.9-2.5-1.6c-0.7-0.7-1.2-1.6-1.6-2.6s-0.6-2.1-0.6-3.4
		c0-1.2,0.2-2.3,0.5-3.4s0.9-1.9,1.6-2.6s1.6-1.3,2.6-1.6c1-0.4,2.2-0.6,3.5-0.6c1.1,0,2,0.1,2.8,0.4c0.8,0.3,1.5,0.6,2,1.1
		c0.5,0.4,0.9,0.9,1.1,1.4s0.4,0.9,0.4,1.3c0,0.4-0.1,0.7-0.4,1c-0.3,0.3-0.7,0.4-1.1,0.4c-0.2,0-0.5-0.1-0.7-0.2s-0.4-0.3-0.5-0.5
		c-0.4-0.6-0.7-1.1-1-1.4c-0.3-0.3-0.6-0.6-1.1-0.8s-1.1-0.3-1.8-0.3c-0.7,0-1.4,0.1-2,0.4c-0.6,0.3-1.1,0.6-1.5,1.1
		c-0.4,0.5-0.7,1.1-0.9,1.8s-0.3,1.5-0.3,2.3c0,1.8,0.4,3.3,1.3,4.3s2,1.5,3.6,1.5c0.7,0,1.4-0.1,2.1-0.3s1.3-0.5,2-0.8v-2.6h-2.5
		c-0.6,0-1-0.1-1.3-0.3s-0.5-0.5-0.5-0.9c0-0.4,0.1-0.6,0.4-0.9s0.6-0.3,1-0.3h3.6c0.4,0,0.8,0,1.1,0.1c0.3,0.1,0.6,0.3,0.7,0.5
		S134.5,32.1,134.5,32.6z"/>
</g>
<g class="st1">
	<path class="st0" d="M140.2,35v2.4c0,0.6-0.1,1-0.4,1.3c-0.3,0.3-0.6,0.4-1.1,0.4c-0.4,0-0.8-0.2-1-0.5c-0.3-0.3-0.4-0.7-0.4-1.3
		v-8.2c0-1.3,0.5-2,1.4-2c0.5,0,0.8,0.2,1.1,0.5s0.3,0.8,0.4,1.4c0.4-0.6,0.7-1.1,1.1-1.4s0.9-0.5,1.5-0.5c0.6,0,1.2,0.2,1.8,0.5
		s0.9,0.7,0.9,1.2c0,0.4-0.1,0.7-0.4,0.9c-0.2,0.2-0.5,0.3-0.8,0.3c-0.1,0-0.4-0.1-0.8-0.2c-0.4-0.1-0.8-0.2-1.1-0.2
		c-0.4,0-0.8,0.1-1.1,0.3c-0.3,0.2-0.5,0.6-0.6,1s-0.3,1-0.3,1.6C140.2,33.4,140.2,34.2,140.2,35z"/>
</g>
<g class="st1">
	<path class="st0" d="M157.1,33.3c0,0.9-0.1,1.7-0.4,2.4s-0.7,1.4-1.2,1.9s-1.1,0.9-1.8,1.2c-0.7,0.3-1.5,0.4-2.4,0.4
		c-0.9,0-1.7-0.1-2.4-0.4s-1.3-0.7-1.8-1.2c-0.5-0.5-0.9-1.2-1.2-1.9c-0.3-0.7-0.4-1.5-0.4-2.4c0-0.9,0.1-1.7,0.4-2.4
		s0.7-1.4,1.2-1.9s1.1-0.9,1.8-1.2c0.7-0.3,1.5-0.4,2.4-0.4c0.9,0,1.7,0.1,2.4,0.4s1.3,0.7,1.9,1.2s0.9,1.2,1.2,1.9
		S157.1,32.4,157.1,33.3z M154.1,33.3c0-1.2-0.3-2.1-0.8-2.8s-1.2-1-2.1-1c-0.6,0-1.1,0.1-1.5,0.4c-0.4,0.3-0.8,0.7-1,1.3
		s-0.4,1.3-0.4,2c0,0.8,0.1,1.4,0.3,2c0.2,0.6,0.6,1,1,1.3c0.4,0.3,0.9,0.5,1.5,0.5c0.9,0,1.6-0.3,2.1-1
		C153.9,35.4,154.1,34.5,154.1,33.3z"/>
	<path class="st0" d="M167,37.6v-0.4c-0.4,0.4-0.7,0.8-1.1,1.1s-0.8,0.5-1.3,0.7c-0.5,0.1-1,0.2-1.6,0.2c-0.7,0-1.3-0.1-1.9-0.4
		c-0.6-0.3-1-0.7-1.3-1.2c-0.4-0.6-0.5-1.5-0.5-2.7v-5.8c0-0.6,0.1-1,0.4-1.3c0.3-0.3,0.6-0.4,1.1-0.4c0.4,0,0.8,0.1,1.1,0.4
		s0.4,0.7,0.4,1.3v4.7c0,0.7,0.1,1.3,0.2,1.7c0.1,0.5,0.3,0.8,0.6,1.1c0.3,0.3,0.7,0.4,1.2,0.4c0.5,0,1-0.1,1.4-0.4s0.8-0.7,1-1.1
		c0.2-0.4,0.2-1.3,0.2-2.7v-3.6c0-0.6,0.1-1,0.4-1.3s0.6-0.4,1.1-0.4s0.8,0.1,1.1,0.4c0.3,0.3,0.4,0.7,0.4,1.3v8.5
		c0,0.6-0.1,1-0.4,1.3c-0.3,0.3-0.6,0.4-1,0.4s-0.7-0.1-1-0.4C167.1,38.6,167,38.1,167,37.6z"/>
	<path class="st0" d="M175.4,29v0.4c0.6-0.7,1.1-1.2,1.7-1.5c0.6-0.3,1.3-0.5,2-0.5c0.9,0,1.7,0.2,2.5,0.7s1.4,1.1,1.8,2
		s0.7,2,0.7,3.2c0,0.9-0.1,1.7-0.4,2.5c-0.3,0.8-0.6,1.4-1,1.9c-0.4,0.5-1,0.9-1.6,1.2c-0.6,0.3-1.3,0.4-2,0.4
		c-0.8,0-1.5-0.2-2.1-0.5s-1.1-0.8-1.6-1.5v4.4c0,1.3-0.5,1.9-1.4,1.9c-0.6,0-0.9-0.2-1.1-0.5c-0.2-0.3-0.3-0.8-0.3-1.5V29
		c0-0.6,0.1-1,0.4-1.3c0.2-0.3,0.6-0.4,1-0.4c0.4,0,0.8,0.1,1,0.4C175.3,28.1,175.4,28.5,175.4,29z M181.1,33.3c0-0.8-0.1-1.4-0.4-2
		c-0.2-0.6-0.6-1-1-1.3c-0.4-0.3-0.9-0.4-1.4-0.4c-0.8,0-1.5,0.3-2,1c-0.6,0.6-0.8,1.6-0.8,2.8c0,1.2,0.3,2.1,0.8,2.7
		c0.6,0.6,1.2,1,2.1,1c0.5,0,0.9-0.1,1.4-0.4c0.4-0.3,0.7-0.7,1-1.3S181.1,34.1,181.1,33.3z"/>
</g>
<path class="st0" d="M94.7,5.3c-0.6-1-1.7-1.6-2.9-1.6l0,0c-1.2,0-2.3,0.6-2.9,1.6l-22.5,35h8.2l3.8-5.9l4.3-6.7l9.1-14l8.9,14
	l4.4,6.9l3.6,5.6h8.4L94.7,5.3z"/>
</svg>
